<?xml version="1.0" encoding="utf-8"?>
<!-- Generator: Adobe Illustrator 16.0.0, SVG Export Plug-In . SVG Version: 6.00 Build 0)  -->
<!DOCTYPE svg PUBLIC "-//W3C//DTD SVG 1.1//EN" "http://www.w3.org/Graphics/SVG/1.1/DTD/svg11.dtd">
<svg version="1.1" id="Layer_1" xmlns="http://www.w3.org/2000/svg" xmlns:xlink="http://www.w3.org/1999/xlink" x="0px" y="0px"
	 width="150px" height="100.507px" viewBox="0 0 150 100.507" enable-background="new 0 0 150 100.507" xml:space="preserve">
<g>
	<g>
		<path fill="#00A651" d="M115.695,22.719H34.712L48.426,8.336c1.535-1.61,3.663-2.521,5.888-2.521h42.112
			c2.261,0,4.417,0.939,5.957,2.595L115.695,22.719z"/>
		<polygon fill="#008445" points="89.552,22.719 60.855,22.719 66.567,5.815 83.98,5.815 		"/>
		<linearGradient id="SVGID_1_" gradientUnits="userSpaceOnUse" x1="75.2041" y1="66.7485" x2="75.2041" y2="28.812">
			<stop  offset="0" style="stop-color:#CE5C28"/>
			<stop  offset="1" style="stop-color:#DD7D37"/>
		</linearGradient>
		<path fill="url(#SVGID_1_)" d="M44.595,32.406l-0.546-3.039c-0.024-0.13-0.013-0.24,0.027-0.35
			c0.023-0.048,0.051-0.099,0.094-0.149c0.017-0.02,0.032-0.04,0.048-0.056h-6.063c-0.035,0.516-0.008,1.046,0.087,1.581l0.546,3.05
			l1.727,9.671l6.557,3.157L44.595,32.406z M42.39,53.602l1.388,7.769c0.554,3.113,3.263,5.378,6.424,5.378h5.821L42.39,53.602z
			 M103.678,44.364l-2.855,15.973c-0.051,0.299-0.311,0.516-0.617,0.516H78.53l-8.995,5.896h30.67c3.162,0,5.871-2.265,6.424-5.378
			l3.834-21.456L103.678,44.364z M112.252,28.812h-6.059c0.016,0.02,0.035,0.04,0.051,0.063c0.035,0.047,0.063,0.094,0.086,0.142
			c0.039,0.109,0.053,0.22,0.031,0.338l-0.549,3.051l-0.346,1.93l6.479-2.72l0.219-1.223
			C112.26,29.858,112.287,29.328,112.252,28.812z"/>
		<path fill="#066D38" d="M51.223,32.154h-7.076c-5.21,0-9.435-4.224-9.435-9.435l0,0h25.945l0,0
			C60.658,27.93,56.434,32.154,51.223,32.154z"/>
		<path fill="#066D38" d="M80.314,32.154H70.093c-5.211,0-9.436-4.224-9.436-9.435l0,0h29.091l0,0
			C89.749,27.93,85.525,32.154,80.314,32.154z"/>
		<path fill="#066D38" d="M106.26,32.154h-7.076c-5.211,0-9.436-4.224-9.436-9.435l0,0h25.947l0,0
			C115.695,27.93,111.471,32.154,106.26,32.154z"/>
		<linearGradient id="SVGID_2_" gradientUnits="userSpaceOnUse" x1="36.2612" y1="50.6304" x2="114.5602" y2="50.6304">
			<stop  offset="0" style="stop-color:#CE5C28"/>
			<stop  offset="1" style="stop-color:#DD7D37"/>
		</linearGradient>
		<polygon fill="url(#SVGID_2_)" points="116.377,32.744 61.823,68.517 36.781,44.371 60.928,55.997 		"/>
	</g>
	<g>
		<path fill="#253D84" d="M19.934,81.504v14.443h-4.016v-7.969l-2.725,7.969H9.834l-2.745-8.031v8.031H3.074V81.504h4.855
			l3.626,9.383l3.544-9.383H19.934z"/>
		<path fill="#253D84" d="M22.218,87.077c0.431-0.887,1.018-1.57,1.762-2.049c0.745-0.477,1.574-0.717,2.489-0.717
			c0.792,0,1.476,0.158,2.049,0.473c0.574,0.313,1.018,0.736,1.332,1.27v-1.598h4.016v11.492H29.85V94.35
			c-0.314,0.533-0.762,0.957-1.342,1.27c-0.581,0.314-1.26,0.473-2.039,0.473c-0.915,0-1.744-0.24-2.489-0.717
			c-0.744-0.479-1.331-1.166-1.762-2.061c-0.43-0.895-0.646-1.936-0.646-3.123C21.573,89.002,21.789,87.965,22.218,87.077z
			 M29.246,88.45c-0.403-0.424-0.898-0.635-1.485-0.635c-0.602,0-1.1,0.209-1.495,0.625c-0.396,0.416-0.595,1-0.595,1.752
			c0,0.736,0.198,1.32,0.595,1.752c0.396,0.43,0.894,0.645,1.495,0.645c0.587,0,1.082-0.211,1.485-0.635
			c0.402-0.424,0.604-1.012,0.604-1.762C29.85,89.454,29.648,88.874,29.246,88.45z"/>
		<path fill="#253D84" d="M41.814,84.926c0.642-0.383,1.332-0.574,2.069-0.574v4.283h-1.127c-0.874,0-1.523,0.17-1.946,0.512
			c-0.424,0.342-0.635,0.936-0.635,1.781v5.02H36.16V84.456h4.016v2.027C40.625,85.829,41.171,85.309,41.814,84.926z"/>
		<path fill="#253D84" d="M52.508,95.948l-3.175-4.711v4.711h-4.016v-15.16h4.016v8.173l3.175-4.506h4.814l-4.527,5.777l4.609,5.715
			H52.508z"/>
		<path fill="#253D84" d="M69.492,91.01h-7.601c0.041,0.629,0.216,1.096,0.522,1.404c0.308,0.307,0.7,0.461,1.179,0.461
			c0.669,0,1.146-0.301,1.434-0.902h4.282c-0.178,0.793-0.522,1.5-1.035,2.121c-0.512,0.621-1.157,1.109-1.936,1.465
			s-1.64,0.533-2.582,0.533c-1.134,0-2.141-0.24-3.021-0.717c-0.881-0.479-1.57-1.162-2.069-2.049
			c-0.498-0.889-0.748-1.934-0.748-3.135c0-1.203,0.246-2.244,0.738-3.125c0.491-0.881,1.178-1.561,2.059-2.039
			c0.881-0.477,1.896-0.717,3.042-0.717c1.134,0,2.138,0.232,3.012,0.697s1.558,1.131,2.049,1.998
			c0.492,0.867,0.737,1.887,0.737,3.063C69.553,90.383,69.533,90.698,69.492,91.01z M65.457,89.065c0-0.492-0.164-0.877-0.492-1.158
			c-0.327-0.279-0.737-0.42-1.229-0.42c-0.491,0-0.895,0.133-1.208,0.4c-0.314,0.266-0.52,0.658-0.615,1.178H65.457z"/>
		<path fill="#253D84" d="M77.974,92.528v3.42h-1.741c-2.938,0-4.405-1.453-4.405-4.363v-3.791h-1.413v-3.338h1.413v-2.787h4.036
			v2.787h2.09v3.338h-2.09v3.852c0,0.314,0.071,0.541,0.215,0.678s0.386,0.205,0.728,0.205H77.974z"/>
		<path fill="#CD5D28" d="M94.537,88.706c-0.403,0.717-1.011,1.291-1.823,1.721c-0.813,0.432-1.807,0.646-2.98,0.646h-1.987v4.875
			H83.73V81.504h6.003c1.16,0,2.147,0.205,2.96,0.615s1.424,0.977,1.834,1.701c0.409,0.723,0.614,1.557,0.614,2.498
			C95.141,87.194,94.939,87.989,94.537,88.706z M91.043,86.319c0-1.051-0.566-1.576-1.7-1.576h-1.598v3.133h1.598
			C90.477,87.875,91.043,87.358,91.043,86.319z"/>
		<path fill="#CD5D28" d="M100.775,92.875h4.486v3.072h-8.502V81.504h4.016V92.875z"/>
		<path fill="#CD5D28" d="M115.955,93.592h-5.121l-0.779,2.355h-4.219l5.264-14.443h4.631l5.244,14.443h-4.24L115.955,93.592z
			 M114.951,90.52l-1.557-4.672l-1.535,4.672H114.951z"/>
		<path fill="#CD5D28" d="M126.67,92.69h6.004v3.258h-10.51v-3.053l5.941-8.152h-5.941v-3.238h10.51v3.053L126.67,92.69z"/>
		<path fill="#CD5D28" d="M143.98,93.592h-5.121l-0.779,2.355h-4.219l5.264-14.443h4.631L149,95.948h-4.24L143.98,93.592z
			 M142.977,90.52l-1.557-4.672l-1.535,4.672H142.977z"/>
	</g>
</g>
</svg>
